<?xml version="1.0" encoding="UTF-8"?><svg xmlns="http://www.w3.org/2000/svg" viewBox="0 0 434.82 125.91"><defs><style>.d{fill:#2a3342;}.e{fill:#3b82f6;}</style></defs><g id="a"/><g id="b"><g id="c"><g><g><path class="d" d="M134.46,64.14c0-15.12,7.99-25.92,23.19-25.92,12.46,0,20.16,7.78,21.1,18.43h-8.64c-.65-6.05-4.61-10.66-12.46-10.66-10.3,0-14.54,7.99-14.54,18.15s4.25,18.07,14.54,18.07c7.56,0,11.45-4.25,12.53-10.23h8.57c-1.22,10.37-8.71,17.93-21.1,17.93-15.27,0-23.19-10.87-23.19-25.78Z"/><path class="d" d="M183.64,70.7c0-10.87,5.9-19.23,17.57-19.23s17.57,8.35,17.57,19.23-5.76,19.23-17.57,19.23-17.57-8.28-17.57-19.23Zm26.79,0c0-7.42-2.95-11.95-9.22-11.95s-9.22,4.61-9.22,11.95,3.02,11.95,9.22,11.95,9.22-4.46,9.22-11.95Z"/><path class="d" d="M223.13,70.62c.07-11.02,5.47-19.15,15.48-19.15,5.4,0,8.78,2.3,10.66,5.11h.29v-20.59h8.21v53.28h-7.27l-.94-4.46h-.29c-1.87,2.81-5.26,5.11-10.66,5.11-9.58,0-15.41-7.63-15.48-19.3Zm26.71,0c0-6.41-2.59-11.88-9.22-11.88s-9.14,5.47-9.14,11.88,2.45,12.02,9.14,12.02,9.22-5.54,9.22-12.02Z"/><path class="d" d="M263.8,70.7c0-10.66,5.69-19.23,17.42-19.23,10.87,0,16.78,7.85,16.78,18.07v3.46h-25.71c0,5.9,3.02,10.01,9.07,10.01,4.54,0,7.27-2.02,8.14-5.04h7.99c-1.01,6.77-7.27,11.95-16.13,11.95-11.3,0-17.57-8.42-17.57-19.23Zm25.78-3.53c-.07-4.9-2.74-8.71-8.35-8.71-5.98,0-8.64,3.89-8.86,8.71h17.21Z"/><path class="d" d="M302.57,73.22h8.57c.43,5.9,4.61,9.15,11.45,9.15,7.56,0,11.09-2.52,11.09-7.2,0-3.96-2.74-5.9-7.78-6.98l-7.34-1.58c-8.71-1.87-14.33-5.76-14.33-14.26s6.98-14.11,18.43-14.11,18.79,6.34,18.87,15.62h-8.57c-.29-4.61-3.46-7.99-10.44-7.99-6.26,0-9.58,2.3-9.58,6.48,0,3.17,2.3,5.18,7.34,6.26l6.84,1.44c9.36,1.94,15.26,6.34,15.26,14.98s-6.62,14.91-19.8,14.91-19.58-6.62-20.02-16.71Z"/><path class="d" d="M352.51,79.12v-20.02h-6.12v-6.98h6.48v-7.85l7.13-2.02h.72v9.86h9v6.98h-9v18.58c0,3.53,1.51,5.04,4.82,5.04,1.51,0,2.66-.22,3.6-.5h.72v6.91c-1.15,.36-3.53,.79-6.34,.79-7.92,0-11.02-4.39-11.02-10.8Z"/><path class="d" d="M374.18,78.33c0-6.48,4.54-11.52,15.19-11.52,3.38,0,6.7,.65,8.64,1.22v-3.46c0-3.46-2.16-6.34-7.34-6.34-4.54,0-6.91,2.52-6.98,5.54h-7.78c0-7.06,5.54-12.31,14.91-12.31s15.34,5.69,15.34,13.03v24.77h-7.2l-.58-4.39h-.29c-2.16,3.17-5.98,5.04-10.94,5.04-8.21,0-12.96-5.04-12.96-11.59Zm23.83-3.1v-1.22c-2.74-.94-5.33-1.3-8.07-1.3-4.97,0-7.56,2.02-7.56,5.33,0,3.02,2.16,5.33,6.62,5.33,5.47,0,9-3.74,9-8.14Z"/><path class="d" d="M414.23,52.12h6.91l.72,5.9h.29c1.51-3.82,4.97-6.41,9.65-6.41h3.02v7.63h-3.17c-6.26,0-9.5,4.32-9.5,11.88v18.15h-7.92V52.12Z"/></g><g><path class="e" d="M38.67,71.33l21.29,8.63v-11.61l-28.94-11.72-8.64-3.5,17.67-7.16h0l4.63-1.88,15.27-26.45h0l14.6,28.29,16.37,6.09L63.19,1.94c-1.42-2.56-5.09-2.59-6.56-.06l-19.41,33.63-.05,.09L2.36,49.64c-3.14,1.27-3.14,5.71,0,6.98h0l29.1,11.79,7.21,2.92Z"/><path class="e" d="M113.72,69l-27.32-11.07-5.34-2.16-21.09-8.54v11.06l25.09,10.71,11.3,4.57-15.97,6.47-.05-.03-5.42,2.2-.04,.07-7.5,12.98-1.22,2.11-.33,.58-5.85,10.13-15.36-26.01-16.39-6.1,28.47,48.09c1.47,2.48,5.06,2.46,6.5-.04l18.93-32.79,34.37-14.15c3.12-1.28,3.11-5.71-.02-6.97l-2.75-1.11Z"/></g></g></g></g></svg>